<svg width="80" height="80" viewBox="0 0 80 80" fill="none" xmlns="http://www.w3.org/2000/svg">
<path d="M69.9631 33.2017C73.3336 35.6013 77.149 42.1599 70.6353 53.5149C61.7437 69.0154 53.0956 74.9959 41.1588 80C58.2113 80 76.4819 66.3303 78.309 52.5385C79.6576 42.3581 73.7293 35.883 69.9631 33.2017Z" fill="#92D3F2"/>
<path d="M67.9556 10.9191C59.1858 1.2527 44.0821 -0.350237 37.6265 0.0565998C47.3538 2.6894 49.234 8.50112 48.019 14.2145C47.1162 18.4599 44.5045 22.651 42.1332 25.4432C46.5628 25.5016 57.9434 25.907 69.0519 32.6442C73.2419 19.9509 69.8975 13.0595 67.9556 10.9191Z" fill="#B9E4F8"/>
<path d="M37.6265 0.0565998C15.4095 2.49762 5.38912 18.8118 3.15605 26.6637C9.39414 19.5441 27.1001 7.08675 48.019 14.2145C49.234 8.50112 47.3538 2.6894 37.6265 0.0565998Z" fill="#0A597C"/>
<path d="M4.25228 39.7232C1.23155 42.8477 1.28839 46.8835 1.6944 48.5109C2.05981 49.4873 4.00866 51.2448 8.88082 50.4637C14.971 49.4873 32.4385 36.8594 42.1332 25.4432C32.8762 25.3212 23.8627 28.4945 19.5995 30.0812C15.3364 31.6678 8.0282 35.8175 4.25228 39.7232Z" fill="#0A597C"/>
<path d="M69.0519 32.6442C67.6848 36.3662 65.2122 41.374 61.6218 46.6066C65.9093 48.1101 69.4173 51.8386 70.6353 53.5149C77.149 42.1599 73.3336 35.6013 69.9631 33.2017C69.6431 32.9874 69.3375 32.8015 69.0519 32.6442Z" fill="#0A597C"/>
<path d="M8.88082 50.4637C4.00866 51.2448 2.05981 49.4873 1.6944 48.5109C7.31044 69.3536 16.7208 72.921 22.8883 72.921C41.1758 72.921 53.9097 57.8462 61.6218 46.6066C65.2122 41.374 67.6848 36.3662 69.0519 32.6442C57.9434 25.907 46.5628 25.5016 42.1332 25.4432C32.4385 36.8594 14.971 49.4873 8.88082 50.4637Z" fill="#92D3F2"/>
</svg>
