<svg width="288" height="288" viewBox="0 0 288 288" fill="none" xmlns="http://www.w3.org/2000/svg">
<path d="M199.432 131.423C205.667 135.862 212.726 147.996 200.675 169.003C184.226 197.679 168.227 208.742 146.144 218C177.691 218 211.491 192.711 214.872 167.196C217.367 148.363 206.399 136.384 199.432 131.423Z" fill="#92D3F2"/>
<path d="M195.718 90.2004C179.494 72.3175 151.552 69.3521 139.609 70.1047C157.604 74.9754 161.083 85.7271 158.835 96.2969C157.165 104.151 152.333 111.904 147.946 117.07C156.141 117.178 177.195 117.928 197.746 130.392C205.498 106.909 199.31 94.16 195.718 90.2004Z" fill="#B9E4F8"/>
<path d="M139.609 70.1047C98.5075 74.6206 79.9698 104.802 75.8386 119.328C87.3791 106.157 120.135 83.1105 158.835 96.2969C161.083 85.7271 157.604 74.9754 139.609 70.1047Z" fill="#0A597C"/>
<path d="M77.8667 143.488C72.2783 149.268 72.3835 156.734 73.1346 159.745C73.8106 161.551 77.416 164.803 86.4294 163.358C97.6963 161.551 130.011 138.19 147.946 117.07C130.821 116.844 114.146 122.715 106.259 125.65C98.3723 128.585 84.8521 136.262 77.8667 143.488Z" fill="#0A597C"/>
<path d="M197.746 130.392C195.217 137.278 190.643 146.542 184 156.222C191.932 159.004 198.422 165.901 200.675 169.003C212.726 147.996 205.667 135.862 199.432 131.423C198.84 131.027 198.274 130.683 197.746 130.392Z" fill="#0A597C"/>
<path d="M86.4294 163.358C77.416 164.803 73.8106 161.551 73.1346 159.745C83.5243 198.304 100.933 204.904 112.343 204.904C146.175 204.904 169.733 177.015 184 156.222C190.643 146.542 195.217 137.278 197.746 130.392C177.195 117.928 156.141 117.178 147.946 117.07C130.011 138.19 97.6963 161.551 86.4294 163.358Z" fill="#92D3F2"/>
</svg>
